<mxfile host="65bd71144e">
    <diagram id="sN0u5kkZCkya0ir_H5qH" name="画面遷移図">
        <mxGraphModel dx="2475" dy="994" grid="1" gridSize="10" guides="1" tooltips="1" connect="1" arrows="1" fold="1" page="1" pageScale="1" pageWidth="827" pageHeight="1169" math="0" shadow="0">
            <root>
                <mxCell id="0"/>
                <mxCell id="1" parent="0"/>
                <mxCell id="4D5Mt6U5kFK5-ibJkH8w-1" value="" style="strokeWidth=1;shadow=0;dashed=0;align=center;html=1;shape=mxgraph.mockup.containers.browserWindow;rSize=0;strokeColor=#666666;strokeColor2=#008cff;strokeColor3=#c4c4c4;mainText=,;recursiveResize=0;fontFamily=Lucida Console;fontSize=22;" parent="1" vertex="1">
                    <mxGeometry x="-520" y="60" width="590" height="400" as="geometry"/>
                </mxCell>
                <mxCell id="4D5Mt6U5kFK5-ibJkH8w-2" value="&lt;span style=&quot;color: rgb(0, 0, 0); font-family: Helvetica; font-size: 22px; text-align: center;&quot;&gt;4択問題&lt;/span&gt;" style="strokeWidth=1;shadow=0;dashed=0;align=center;html=1;shape=mxgraph.mockup.containers.anchor;fontSize=17;fontColor=#666666;align=left;fontFamily=Lucida Console;" parent="4D5Mt6U5kFK5-ibJkH8w-1" vertex="1">
                    <mxGeometry x="60" y="12" width="110" height="26" as="geometry"/>
                </mxCell>
                <mxCell id="4D5Mt6U5kFK5-ibJkH8w-3" value="https://localhost/php/exam/" style="strokeWidth=1;shadow=0;dashed=0;align=center;html=1;shape=mxgraph.mockup.containers.anchor;rSize=0;fontSize=17;fontColor=#666666;align=left;fontFamily=Lucida Console;" parent="4D5Mt6U5kFK5-ibJkH8w-1" vertex="1">
                    <mxGeometry x="130" y="60" width="250" height="26" as="geometry"/>
                </mxCell>
                <mxCell id="4D5Mt6U5kFK5-ibJkH8w-9" value="" style="strokeWidth=1;shadow=0;dashed=0;align=center;html=1;shape=mxgraph.mockup.rrect;rSize=10;fillColor=#ffffff;strokeColor=#666666;fontFamily=Lucida Console;fontSize=22;" parent="4D5Mt6U5kFK5-ibJkH8w-1" vertex="1">
                    <mxGeometry y="110" width="370" height="50" as="geometry"/>
                </mxCell>
                <mxCell id="4D5Mt6U5kFK5-ibJkH8w-10" value="解答" style="strokeColor=inherit;fillColor=inherit;gradientColor=inherit;strokeWidth=1;shadow=0;dashed=0;align=center;html=1;shape=mxgraph.mockup.rrect;rSize=0;fontSize=17;fontColor=#666666;fontStyle=1;resizeHeight=1;fontFamily=Lucida Console;" parent="4D5Mt6U5kFK5-ibJkH8w-9" vertex="1">
                    <mxGeometry width="125" height="50" relative="1" as="geometry">
                        <mxPoint x="125" as="offset"/>
                    </mxGeometry>
                </mxCell>
                <mxCell id="4D5Mt6U5kFK5-ibJkH8w-12" value="答え合わせ" style="strokeColor=inherit;fillColor=inherit;gradientColor=inherit;strokeWidth=1;shadow=0;dashed=0;align=center;html=1;shape=mxgraph.mockup.rightButton;rSize=10;fontSize=17;fontColor=#666666;fontStyle=1;resizeHeight=1;fontFamily=Lucida Console;" parent="4D5Mt6U5kFK5-ibJkH8w-9" vertex="1">
                    <mxGeometry x="1" width="125" height="50" relative="1" as="geometry">
                        <mxPoint x="-125" as="offset"/>
                    </mxGeometry>
                </mxCell>
                <mxCell id="4D5Mt6U5kFK5-ibJkH8w-13" value="表紙" style="strokeWidth=1;shadow=0;dashed=0;align=center;html=1;shape=mxgraph.mockup.leftButton;rSize=10;fontSize=17;fontColor=#ffffff;fontStyle=1;fillColor=#008cff;strokeColor=#008cff;resizeHeight=1;fontFamily=Lucida Console;" parent="4D5Mt6U5kFK5-ibJkH8w-9" vertex="1">
                    <mxGeometry width="125" height="50" relative="1" as="geometry"/>
                </mxCell>
                <mxCell id="JGRsq6ZDVuanarTj7v35-1" value="" style="strokeWidth=1;shadow=0;dashed=0;align=center;html=1;shape=mxgraph.mockup.containers.browserWindow;rSize=0;strokeColor=#666666;strokeColor2=#008cff;strokeColor3=#c4c4c4;mainText=,;recursiveResize=0;fontFamily=Lucida Console;fontSize=22;" parent="1" vertex="1">
                    <mxGeometry x="-800" y="580" width="655" height="400" as="geometry"/>
                </mxCell>
                <mxCell id="JGRsq6ZDVuanarTj7v35-2" value="&lt;span style=&quot;color: rgb(0, 0, 0); font-family: Helvetica; font-size: 22px; text-align: center;&quot;&gt;4択問題&lt;/span&gt;" style="strokeWidth=1;shadow=0;dashed=0;align=center;html=1;shape=mxgraph.mockup.containers.anchor;fontSize=17;fontColor=#666666;align=left;fontFamily=Lucida Console;" parent="JGRsq6ZDVuanarTj7v35-1" vertex="1">
                    <mxGeometry x="60" y="12" width="110" height="26" as="geometry"/>
                </mxCell>
                <mxCell id="JGRsq6ZDVuanarTj7v35-3" value="https://localhost/php/exam/" style="strokeWidth=1;shadow=0;dashed=0;align=center;html=1;shape=mxgraph.mockup.containers.anchor;rSize=0;fontSize=17;fontColor=#666666;align=left;fontFamily=Lucida Console;" parent="JGRsq6ZDVuanarTj7v35-1" vertex="1">
                    <mxGeometry x="130" y="60" width="250" height="26" as="geometry"/>
                </mxCell>
                <mxCell id="JGRsq6ZDVuanarTj7v35-4" value="" style="strokeWidth=1;shadow=0;dashed=0;align=center;html=1;shape=mxgraph.mockup.rrect;rSize=10;fillColor=#ffffff;strokeColor=#666666;fontFamily=Lucida Console;fontSize=22;" parent="JGRsq6ZDVuanarTj7v35-1" vertex="1">
                    <mxGeometry y="110" width="370" height="50" as="geometry"/>
                </mxCell>
                <mxCell id="JGRsq6ZDVuanarTj7v35-5" value="解答" style="strokeColor=#008cff;fillColor=#008cff;gradientColor=inherit;strokeWidth=1;shadow=0;dashed=0;align=center;html=1;shape=mxgraph.mockup.rrect;rSize=0;fontSize=17;fontColor=#ffffff;fontStyle=1;resizeHeight=1;fontFamily=Lucida Console;" parent="JGRsq6ZDVuanarTj7v35-4" vertex="1">
                    <mxGeometry width="125" height="50" relative="1" as="geometry">
                        <mxPoint x="125" as="offset"/>
                    </mxGeometry>
                </mxCell>
                <mxCell id="JGRsq6ZDVuanarTj7v35-6" value="答え合わせ" style="strokeColor=inherit;fillColor=inherit;gradientColor=inherit;strokeWidth=1;shadow=0;dashed=0;align=center;html=1;shape=mxgraph.mockup.rightButton;rSize=10;fontSize=17;fontColor=#666666;fontStyle=1;resizeHeight=1;fontFamily=Lucida Console;" parent="JGRsq6ZDVuanarTj7v35-4" vertex="1">
                    <mxGeometry x="1" width="125" height="50" relative="1" as="geometry">
                        <mxPoint x="-125" as="offset"/>
                    </mxGeometry>
                </mxCell>
                <mxCell id="JGRsq6ZDVuanarTj7v35-7" value="表紙" style="strokeWidth=1;shadow=0;dashed=0;align=center;html=1;shape=mxgraph.mockup.leftButton;rSize=10;fontSize=17;fontColor=#666666;fontStyle=1;fillColor=inherit;strokeColor=inherit;resizeHeight=1;fontFamily=Lucida Console;gradientColor=inherit;" parent="JGRsq6ZDVuanarTj7v35-4" vertex="1">
                    <mxGeometry width="125" height="50" relative="1" as="geometry"/>
                </mxCell>
                <mxCell id="JGRsq6ZDVuanarTj7v35-8" value="●&lt;span style=&quot;background-color: rgb(255, 255, 255); font-family: &amp;quot;Cascadia Code&amp;quot;, Consolas, &amp;quot;Courier New&amp;quot;, monospace, Consolas, &amp;quot;Courier New&amp;quot;, monospace; font-size: 14px; font-weight: bold;&quot;&gt;玉子には殻が赤いものと白いものがありますが、両者の違いはなんでしょうか？&lt;/span&gt;" style="text;html=1;align=left;verticalAlign=middle;resizable=0;points=[];autosize=1;strokeColor=none;fillColor=none;fontSize=22;fontFamily=Lucida Console;fontColor=#000000;" parent="JGRsq6ZDVuanarTj7v35-1" vertex="1">
                    <mxGeometry x="32.5" y="180" width="590" height="40" as="geometry"/>
                </mxCell>
                <mxCell id="JGRsq6ZDVuanarTj7v35-17" value="1．✓栄養価&#10;2．　味&#10;3．　賞味期限&#10;4．　何も変わらない" style="text;align=left;verticalAlign=middle;resizable=0;points=[];autosize=1;strokeColor=none;fillColor=none;fontSize=22;fontFamily=Lucida Console;fontColor=#000000;" parent="JGRsq6ZDVuanarTj7v35-1" vertex="1">
                    <mxGeometry x="50" y="220" width="230" height="120" as="geometry"/>
                </mxCell>
                <mxCell id="JGRsq6ZDVuanarTj7v35-18" value="次へ" style="strokeWidth=1;shadow=0;dashed=0;align=center;html=1;shape=mxgraph.mockup.buttons.button;strokeColor=#666666;fontColor=default;mainText=;buttonStyle=round;fontSize=22;fontStyle=1;fillColor=#ffffff;whiteSpace=wrap;fontFamily=Lucida Console;" parent="JGRsq6ZDVuanarTj7v35-1" vertex="1">
                    <mxGeometry x="253" y="340" width="150" height="45" as="geometry"/>
                </mxCell>
                <mxCell id="JGRsq6ZDVuanarTj7v35-19" style="edgeStyle=none;html=1;entryX=0.497;entryY=-0.007;entryDx=0;entryDy=0;entryPerimeter=0;fontFamily=Lucida Console;fontSize=22;fontColor=#000000;exitX=0.471;exitY=1.059;exitDx=0;exitDy=0;exitPerimeter=0;" parent="1" source="4D5Mt6U5kFK5-ibJkH8w-10" target="JGRsq6ZDVuanarTj7v35-1" edge="1">
                    <mxGeometry relative="1" as="geometry">
                        <mxPoint x="-630" y="430" as="sourcePoint"/>
                    </mxGeometry>
                </mxCell>
                <mxCell id="JGRsq6ZDVuanarTj7v35-20" value="" style="strokeWidth=1;shadow=0;dashed=0;align=center;html=1;shape=mxgraph.mockup.containers.browserWindow;rSize=0;strokeColor=#666666;strokeColor2=#008cff;strokeColor3=#c4c4c4;mainText=,;recursiveResize=0;fontFamily=Lucida Console;fontSize=22;" parent="1" vertex="1">
                    <mxGeometry x="30" y="570" width="1060" height="530" as="geometry"/>
                </mxCell>
                <mxCell id="JGRsq6ZDVuanarTj7v35-21" value="&lt;span style=&quot;color: rgb(0, 0, 0); font-family: Helvetica; font-size: 22px; text-align: center;&quot;&gt;4択問題&lt;/span&gt;" style="strokeWidth=1;shadow=0;dashed=0;align=center;html=1;shape=mxgraph.mockup.containers.anchor;fontSize=17;fontColor=#666666;align=left;fontFamily=Lucida Console;" parent="JGRsq6ZDVuanarTj7v35-20" vertex="1">
                    <mxGeometry x="60" y="12" width="110" height="26" as="geometry"/>
                </mxCell>
                <mxCell id="JGRsq6ZDVuanarTj7v35-22" value="https://localhost/php/exam/" style="strokeWidth=1;shadow=0;dashed=0;align=center;html=1;shape=mxgraph.mockup.containers.anchor;rSize=0;fontSize=17;fontColor=#666666;align=left;fontFamily=Lucida Console;" parent="JGRsq6ZDVuanarTj7v35-20" vertex="1">
                    <mxGeometry x="130" y="60" width="250" height="26" as="geometry"/>
                </mxCell>
                <mxCell id="JGRsq6ZDVuanarTj7v35-23" value="" style="strokeWidth=1;shadow=0;dashed=0;align=center;html=1;shape=mxgraph.mockup.rrect;rSize=10;fillColor=#ffffff;strokeColor=#666666;fontFamily=Lucida Console;fontSize=22;" parent="JGRsq6ZDVuanarTj7v35-20" vertex="1">
                    <mxGeometry y="110" width="370" height="50" as="geometry"/>
                </mxCell>
                <mxCell id="JGRsq6ZDVuanarTj7v35-24" value="解答" style="strokeColor=inherit;fillColor=inherit;gradientColor=inherit;strokeWidth=1;shadow=0;dashed=0;align=center;html=1;shape=mxgraph.mockup.rrect;rSize=0;fontSize=17;fontColor=#666666;fontStyle=1;resizeHeight=1;fontFamily=Lucida Console;" parent="JGRsq6ZDVuanarTj7v35-23" vertex="1">
                    <mxGeometry width="125" height="50" relative="1" as="geometry">
                        <mxPoint x="125" as="offset"/>
                    </mxGeometry>
                </mxCell>
                <mxCell id="JGRsq6ZDVuanarTj7v35-25" value="答え合わせ" style="strokeColor=#008cff;fillColor=#008cff;gradientColor=inherit;strokeWidth=1;shadow=0;dashed=0;align=center;html=1;shape=mxgraph.mockup.rightButton;rSize=10;fontSize=17;fontColor=#ffffff;fontStyle=1;resizeHeight=1;fontFamily=Lucida Console;" parent="JGRsq6ZDVuanarTj7v35-23" vertex="1">
                    <mxGeometry x="1" width="125" height="50" relative="1" as="geometry">
                        <mxPoint x="-125" as="offset"/>
                    </mxGeometry>
                </mxCell>
                <mxCell id="JGRsq6ZDVuanarTj7v35-26" value="表紙" style="strokeWidth=1;shadow=0;dashed=0;align=center;html=1;shape=mxgraph.mockup.leftButton;rSize=10;fontSize=17;fontColor=#666666;fontStyle=1;fillColor=inherit;strokeColor=inherit;resizeHeight=1;fontFamily=Lucida Console;gradientColor=inherit;" parent="JGRsq6ZDVuanarTj7v35-23" vertex="1">
                    <mxGeometry width="125" height="50" relative="1" as="geometry"/>
                </mxCell>
                <mxCell id="JGRsq6ZDVuanarTj7v35-27" value="●&lt;span style=&quot;background-color: rgb(255, 255, 255); font-family: &amp;quot;Cascadia Code&amp;quot;, Consolas, &amp;quot;Courier New&amp;quot;, monospace, Consolas, &amp;quot;Courier New&amp;quot;, monospace; font-size: 14px; font-weight: bold;&quot;&gt;玉子には殻が赤いものと白いものがありますが、両者の違いはなんでしょうか？&lt;/span&gt;" style="text;html=1;align=left;verticalAlign=middle;resizable=0;points=[];autosize=1;strokeColor=none;fillColor=none;fontSize=22;fontFamily=Lucida Console;fontColor=#000000;" parent="JGRsq6ZDVuanarTj7v35-20" vertex="1">
                    <mxGeometry x="32.5" y="180" width="590" height="40" as="geometry"/>
                </mxCell>
                <mxCell id="JGRsq6ZDVuanarTj7v35-28" value="1．✓栄養価&#10;2．　味&#10;3．　賞味期限&#10;4．✓何も変わらない" style="text;align=left;verticalAlign=middle;resizable=0;points=[];autosize=1;strokeColor=none;fillColor=none;fontSize=22;fontFamily=Lucida Console;fontColor=#221c1c;" parent="JGRsq6ZDVuanarTj7v35-20" vertex="1">
                    <mxGeometry x="60" y="220" width="230" height="120" as="geometry"/>
                </mxCell>
                <mxCell id="JGRsq6ZDVuanarTj7v35-29" value="次へ" style="strokeWidth=1;shadow=0;dashed=0;align=center;html=1;shape=mxgraph.mockup.buttons.button;strokeColor=#666666;fontColor=default;mainText=;buttonStyle=round;fontSize=22;fontStyle=1;fillColor=#ffffff;whiteSpace=wrap;fontFamily=Lucida Console;" parent="JGRsq6ZDVuanarTj7v35-20" vertex="1">
                    <mxGeometry x="555" y="460" width="150" height="45" as="geometry"/>
                </mxCell>
                <mxCell id="JGRsq6ZDVuanarTj7v35-32" value="" style="endArrow=none;html=1;fontFamily=Lucida Console;fontSize=22;fontColor=#221c1c;fillColor=#e51400;strokeColor=#B20000;strokeWidth=4;" parent="JGRsq6ZDVuanarTj7v35-20" edge="1">
                    <mxGeometry width="50" height="50" relative="1" as="geometry">
                        <mxPoint x="90" y="241" as="sourcePoint"/>
                        <mxPoint x="210" y="241" as="targetPoint"/>
                    </mxGeometry>
                </mxCell>
                <mxCell id="JGRsq6ZDVuanarTj7v35-34" value="何も変わらない&#10;&#10;玉子には殻の色は白色であれば白色レグホンのような白玉鶏、&#10;赤色であればロードアイランドレッドなどの赤玉鶏のように鶏の種類で決まるため、&#10;栄養価、味、賞味期限については基本的に何も変わりません。&#10;ただし、鶏を育てる農場のこだわりによっては違いが生まれるため、&#10;ぜひいろいろと食べ比べてみてはいかがでしょうか。" style="text;align=left;verticalAlign=middle;resizable=0;points=[];autosize=1;strokeColor=none;fillColor=none;fontSize=20;fontFamily=Lucida Console;fontColor=#221c1c;" parent="JGRsq6ZDVuanarTj7v35-20" vertex="1">
                    <mxGeometry x="290" y="230" width="780" height="180" as="geometry"/>
                </mxCell>
                <mxCell id="JGRsq6ZDVuanarTj7v35-35" value="前へ" style="strokeWidth=1;shadow=0;dashed=0;align=center;html=1;shape=mxgraph.mockup.buttons.button;strokeColor=#666666;fontColor=default;mainText=;buttonStyle=round;fontSize=22;fontStyle=1;fillColor=#ffffff;whiteSpace=wrap;fontFamily=Lucida Console;" parent="JGRsq6ZDVuanarTj7v35-20" vertex="1">
                    <mxGeometry x="390" y="460" width="150" height="45" as="geometry"/>
                </mxCell>
                <mxCell id="JGRsq6ZDVuanarTj7v35-30" style="edgeStyle=none;html=1;entryX=0.19;entryY=-0.007;entryDx=0;entryDy=0;entryPerimeter=0;fontFamily=Lucida Console;fontSize=22;fontColor=#000000;" parent="1" source="4D5Mt6U5kFK5-ibJkH8w-12" target="JGRsq6ZDVuanarTj7v35-20" edge="1">
                    <mxGeometry relative="1" as="geometry"/>
                </mxCell>
                <mxCell id="JGRsq6ZDVuanarTj7v35-33" value="&lt;p style=&quot;font-family: メイリオ, Meiryo, &amp;quot;ヒラギノ角ゴ W3&amp;quot;, &amp;quot;Hiragino Kaku Gothic Pro&amp;quot;, &amp;quot;ＭＳ Ｐゴシック&amp;quot;, sans-serif; margin: 25px 0px; padding: 0px; font-size: 1.2rem; font-weight: bold; color: rgb(51, 51, 51); text-align: start;&quot; class=&quot;answer&quot;&gt;&lt;br&gt;&lt;/p&gt;" style="text;html=1;align=center;verticalAlign=middle;resizable=0;points=[];autosize=1;strokeColor=none;fillColor=none;fontSize=22;fontFamily=Lucida Console;fontColor=#221c1c;" parent="1" vertex="1">
                    <mxGeometry x="35" y="1180" width="20" height="90" as="geometry"/>
                </mxCell>
            </root>
        </mxGraphModel>
    </diagram>
    <diagram id="TT3woxw9_InTuQ1sZuqN" name="ユースケース(全体)">
        <mxGraphModel dx="824" dy="497" grid="1" gridSize="10" guides="1" tooltips="1" connect="1" arrows="1" fold="1" page="1" pageScale="1" pageWidth="827" pageHeight="1169" math="0" shadow="0">
            <root>
                <mxCell id="0"/>
                <mxCell id="1" parent="0"/>
                <mxCell id="uF_68j0oBrhCoBeqezdE-1" value="4択問題システム" style="shape=umlFrame;whiteSpace=wrap;html=1;width=240;height=50;fontSize=22;" parent="1" vertex="1">
                    <mxGeometry x="275" y="120" width="350" height="430" as="geometry"/>
                </mxCell>
                <mxCell id="uF_68j0oBrhCoBeqezdE-8" style="edgeStyle=none;html=1;entryX=0;entryY=0.5;entryDx=0;entryDy=0;fontSize=22;endArrow=none;endFill=0;strokeWidth=2;fontFamily=Lucida Console;fontStyle=0" parent="1" source="uF_68j0oBrhCoBeqezdE-3" target="uF_68j0oBrhCoBeqezdE-5" edge="1">
                    <mxGeometry relative="1" as="geometry"/>
                </mxCell>
                <mxCell id="uF_68j0oBrhCoBeqezdE-9" style="edgeStyle=none;html=1;entryX=0;entryY=0.5;entryDx=0;entryDy=0;fontSize=22;endArrow=none;endFill=0;strokeWidth=2;fontFamily=Lucida Console;fontStyle=0" parent="1" source="uF_68j0oBrhCoBeqezdE-3" target="uF_68j0oBrhCoBeqezdE-6" edge="1">
                    <mxGeometry relative="1" as="geometry"/>
                </mxCell>
                <mxCell id="uF_68j0oBrhCoBeqezdE-10" style="edgeStyle=none;html=1;entryX=0;entryY=0.5;entryDx=0;entryDy=0;fontSize=22;endArrow=none;endFill=0;strokeWidth=2;fontFamily=Lucida Console;fontStyle=0" parent="1" source="uF_68j0oBrhCoBeqezdE-3" target="uF_68j0oBrhCoBeqezdE-7" edge="1">
                    <mxGeometry relative="1" as="geometry"/>
                </mxCell>
                <mxCell id="uF_68j0oBrhCoBeqezdE-3" value="解答者" style="shape=umlActor;html=1;verticalLabelPosition=bottom;verticalAlign=top;align=center;fontSize=22;strokeWidth=2;fontFamily=Lucida Console;fontStyle=0" parent="1" vertex="1">
                    <mxGeometry x="70" y="250" width="30" height="60" as="geometry"/>
                </mxCell>
                <mxCell id="uF_68j0oBrhCoBeqezdE-5" value="表紙" style="ellipse;whiteSpace=wrap;html=1;fontSize=22;strokeWidth=2;fontFamily=Lucida Console;fontStyle=0" parent="1" vertex="1">
                    <mxGeometry x="360" y="210" width="180" height="70" as="geometry"/>
                </mxCell>
                <mxCell id="uF_68j0oBrhCoBeqezdE-13" style="edgeStyle=none;html=1;entryX=0;entryY=0.5;entryDx=0;entryDy=0;entryPerimeter=0;fontSize=22;endArrow=none;endFill=0;strokeWidth=2;fontFamily=Lucida Console;fontStyle=0" parent="1" source="uF_68j0oBrhCoBeqezdE-6" target="uF_68j0oBrhCoBeqezdE-11" edge="1">
                    <mxGeometry relative="1" as="geometry"/>
                </mxCell>
                <mxCell id="uF_68j0oBrhCoBeqezdE-14" style="edgeStyle=none;html=1;entryX=0.011;entryY=0.614;entryDx=0;entryDy=0;entryPerimeter=0;fontSize=22;endArrow=none;endFill=0;strokeWidth=2;fontFamily=Lucida Console;fontStyle=0" parent="1" source="uF_68j0oBrhCoBeqezdE-6" target="uF_68j0oBrhCoBeqezdE-12" edge="1">
                    <mxGeometry relative="1" as="geometry"/>
                </mxCell>
                <mxCell id="uF_68j0oBrhCoBeqezdE-6" value="解答" style="ellipse;whiteSpace=wrap;html=1;fontSize=22;strokeWidth=2;fontFamily=Lucida Console;fontStyle=0" parent="1" vertex="1">
                    <mxGeometry x="360" y="320" width="180" height="70" as="geometry"/>
                </mxCell>
                <mxCell id="uF_68j0oBrhCoBeqezdE-15" style="edgeStyle=none;html=1;entryX=0;entryY=0.5;entryDx=0;entryDy=0;entryPerimeter=0;fontSize=22;endArrow=none;endFill=0;strokeWidth=2;fontFamily=Lucida Console;fontStyle=0" parent="1" source="uF_68j0oBrhCoBeqezdE-7" target="uF_68j0oBrhCoBeqezdE-11" edge="1">
                    <mxGeometry relative="1" as="geometry"/>
                </mxCell>
                <mxCell id="uF_68j0oBrhCoBeqezdE-16" style="edgeStyle=none;html=1;entryX=-0.011;entryY=0.629;entryDx=0;entryDy=0;entryPerimeter=0;fontSize=22;endArrow=none;endFill=0;strokeWidth=2;fontFamily=Lucida Console;fontStyle=0" parent="1" source="uF_68j0oBrhCoBeqezdE-7" target="uF_68j0oBrhCoBeqezdE-12" edge="1">
                    <mxGeometry relative="1" as="geometry"/>
                </mxCell>
                <mxCell id="uF_68j0oBrhCoBeqezdE-7" value="答え合わせ" style="ellipse;whiteSpace=wrap;html=1;fontSize=22;strokeWidth=2;fontFamily=Lucida Console;fontStyle=0" parent="1" vertex="1">
                    <mxGeometry x="360" y="430" width="180" height="70" as="geometry"/>
                </mxCell>
                <mxCell id="uF_68j0oBrhCoBeqezdE-11" value="exam" style="strokeWidth=2;html=1;shape=mxgraph.flowchart.database;whiteSpace=wrap;fontSize=22;fontFamily=Lucida Console;fontStyle=0" parent="1" vertex="1">
                    <mxGeometry x="660" y="290" width="90" height="70" as="geometry"/>
                </mxCell>
                <mxCell id="uF_68j0oBrhCoBeqezdE-12" value="answer" style="strokeWidth=2;html=1;shape=mxgraph.flowchart.database;whiteSpace=wrap;fontSize=22;fontFamily=Lucida Console;fontStyle=0" parent="1" vertex="1">
                    <mxGeometry x="690" y="340" width="90" height="70" as="geometry"/>
                </mxCell>
            </root>
        </mxGraphModel>
    </diagram>
    <diagram id="REs5SZ-OihSLlZ9eLDlP" name="データベースクラス">
        <mxGraphModel dx="898" dy="1934" grid="1" gridSize="10" guides="1" tooltips="1" connect="1" arrows="1" fold="1" page="1" pageScale="1" pageWidth="827" pageHeight="1169" math="0" shadow="0">
            <root>
                <mxCell id="0"/>
                <mxCell id="1" parent="0"/>
                <mxCell id="2" value="exam" style="swimlane;fontStyle=0;childLayout=stackLayout;horizontal=1;startSize=40;fillColor=none;horizontalStack=0;resizeParent=1;resizeParentMax=0;resizeLast=0;collapsible=1;marginBottom=0;fontSize=22;fontFamily=Lucida Console;" parent="1" vertex="1">
                    <mxGeometry x="40" y="60" width="350" height="274" as="geometry"/>
                </mxCell>
                <mxCell id="3" value="+ id: INT" style="text;strokeColor=none;fillColor=none;align=left;verticalAlign=top;spacingLeft=4;spacingRight=4;overflow=hidden;rotatable=0;points=[[0,0.5],[1,0.5]];portConstraint=eastwest;fontSize=22;fontFamily=Lucida Console;" parent="2" vertex="1">
                    <mxGeometry y="40" width="350" height="34" as="geometry"/>
                </mxCell>
                <mxCell id="4" value="+ title: varchar(100)&#10;+ description: text&#10;+ answer1: varchar(100)&#10;+ answer2: varchar(100)&#10;+ answer3: varchar(100)&#10;+ answer4: varchar(100)&#10;+ correct: tinyint" style="text;strokeColor=none;fillColor=none;align=left;verticalAlign=top;spacingLeft=4;spacingRight=4;overflow=hidden;rotatable=0;points=[[0,0.5],[1,0.5]];portConstraint=eastwest;fontSize=22;fontFamily=Lucida Console;" parent="2" vertex="1">
                    <mxGeometry y="74" width="350" height="200" as="geometry"/>
                </mxCell>
                <mxCell id="6" value="answer" style="swimlane;fontStyle=0;childLayout=stackLayout;horizontal=1;startSize=40;fillColor=none;horizontalStack=0;resizeParent=1;resizeParentMax=0;resizeLast=0;collapsible=1;marginBottom=0;fontSize=22;fontFamily=Lucida Console;" parent="1" vertex="1">
                    <mxGeometry x="480" y="100" width="300" height="234" as="geometry"/>
                </mxCell>
                <mxCell id="7" value="+ id: INT" style="text;strokeColor=none;fillColor=none;align=left;verticalAlign=top;spacingLeft=4;spacingRight=4;overflow=hidden;rotatable=0;points=[[0,0.5],[1,0.5]];portConstraint=eastwest;fontSize=22;fontFamily=Lucida Console;" parent="6" vertex="1">
                    <mxGeometry y="40" width="300" height="34" as="geometry"/>
                </mxCell>
                <mxCell id="9" value="+ no: INT" style="text;strokeColor=none;fillColor=none;align=left;verticalAlign=top;spacingLeft=4;spacingRight=4;overflow=hidden;rotatable=0;points=[[0,0.5],[1,0.5]];portConstraint=eastwest;fontSize=22;fontFamily=Lucida Console;" parent="6" vertex="1">
                    <mxGeometry y="74" width="300" height="38" as="geometry"/>
                </mxCell>
                <mxCell id="10" value="+ exam_id: INT" style="text;strokeColor=none;fillColor=none;align=left;verticalAlign=top;spacingLeft=4;spacingRight=4;overflow=hidden;rotatable=0;points=[[0,0.5],[1,0.5]];portConstraint=eastwest;fontSize=22;fontFamily=Lucida Console;" parent="6" vertex="1">
                    <mxGeometry y="112" width="300" height="42" as="geometry"/>
                </mxCell>
                <mxCell id="11" value="+ answer: TINYINT" style="text;strokeColor=none;fillColor=none;align=left;verticalAlign=top;spacingLeft=4;spacingRight=4;overflow=hidden;rotatable=0;points=[[0,0.5],[1,0.5]];portConstraint=eastwest;fontSize=22;fontFamily=Lucida Console;" parent="6" vertex="1">
                    <mxGeometry y="154" width="300" height="40" as="geometry"/>
                </mxCell>
                <mxCell id="12" value="+ is_correct: TINYINT" style="text;strokeColor=none;fillColor=none;align=left;verticalAlign=top;spacingLeft=4;spacingRight=4;overflow=hidden;rotatable=0;points=[[0,0.5],[1,0.5]];portConstraint=eastwest;fontSize=22;fontFamily=Lucida Console;" parent="6" vertex="1">
                    <mxGeometry y="194" width="300" height="40" as="geometry"/>
                </mxCell>
                <mxCell id="13" style="edgeStyle=none;html=1;entryX=1;entryY=0.5;entryDx=0;entryDy=0;exitX=-0.007;exitY=0.269;exitDx=0;exitDy=0;exitPerimeter=0;endArrow=none;endFill=0;fontSize=22;fontFamily=Lucida Console;" parent="1" source="10" target="3" edge="1">
                    <mxGeometry relative="1" as="geometry"/>
                </mxCell>
                <mxCell id="15" style="edgeStyle=none;html=1;fontFamily=Lucida Console;fontSize=22;" parent="1" source="14" target="2" edge="1">
                    <mxGeometry relative="1" as="geometry"/>
                </mxCell>
                <mxCell id="14" value="問題、選択肢、正解、解説" style="shape=note;size=20;whiteSpace=wrap;html=1;fontFamily=Lucida Console;fontSize=22;" parent="1" vertex="1">
                    <mxGeometry x="70" y="-80" width="350" height="80" as="geometry"/>
                </mxCell>
                <mxCell id="17" style="edgeStyle=none;html=1;fontFamily=Lucida Console;fontSize=22;" parent="1" source="16" target="6" edge="1">
                    <mxGeometry relative="1" as="geometry"/>
                </mxCell>
                <mxCell id="16" value="解答回数、解答、正解" style="shape=note;size=20;whiteSpace=wrap;html=1;fontFamily=Lucida Console;fontSize=22;" parent="1" vertex="1">
                    <mxGeometry x="420" y="430" width="350" height="80" as="geometry"/>
                </mxCell>
                <mxCell id="qWqKbyETU0rKUs4jgBR8-25" style="edgeStyle=elbowEdgeStyle;html=1;fontSize=22;endArrow=none;endFill=0;" edge="1" parent="1" source="qWqKbyETU0rKUs4jgBR8-21" target="2">
                    <mxGeometry relative="1" as="geometry"/>
                </mxCell>
                <mxCell id="qWqKbyETU0rKUs4jgBR8-21" value="ResultJSON" style="swimlane;fontStyle=0;childLayout=stackLayout;horizontal=1;startSize=26;fillColor=none;horizontalStack=0;resizeParent=1;resizeParentMax=0;resizeLast=0;collapsible=1;marginBottom=0;labelBackgroundColor=none;labelBorderColor=none;strokeColor=default;fontSize=22;" vertex="1" parent="1">
                    <mxGeometry x="170" y="-380" width="400" height="140" as="geometry"/>
                </mxCell>
                <mxCell id="qWqKbyETU0rKUs4jgBR8-23" value="+ error: String []" style="text;strokeColor=none;fillColor=none;align=left;verticalAlign=top;spacingLeft=4;spacingRight=4;overflow=hidden;rotatable=0;points=[[0,0.5],[1,0.5]];portConstraint=eastwest;labelBackgroundColor=none;labelBorderColor=none;fontSize=22;" vertex="1" parent="qWqKbyETU0rKUs4jgBR8-21">
                    <mxGeometry y="26" width="400" height="54" as="geometry"/>
                </mxCell>
                <mxCell id="qWqKbyETU0rKUs4jgBR8-24" value="+ container: exam またanswer" style="text;strokeColor=none;fillColor=none;align=left;verticalAlign=top;spacingLeft=4;spacingRight=4;overflow=hidden;rotatable=0;points=[[0,0.5],[1,0.5]];portConstraint=eastwest;labelBackgroundColor=none;labelBorderColor=none;fontSize=22;" vertex="1" parent="qWqKbyETU0rKUs4jgBR8-21">
                    <mxGeometry y="80" width="400" height="60" as="geometry"/>
                </mxCell>
                <mxCell id="qWqKbyETU0rKUs4jgBR8-26" style="html=1;entryX=0.5;entryY=0;entryDx=0;entryDy=0;fontSize=22;endArrow=none;endFill=0;" edge="1" parent="1" source="qWqKbyETU0rKUs4jgBR8-24" target="6">
                    <mxGeometry relative="1" as="geometry"/>
                </mxCell>
            </root>
        </mxGraphModel>
    </diagram>
    <diagram id="-K6X4Iu99WaQo7mksQn3" name="ユースケース(解答)">
        <mxGraphModel dx="973" dy="828" grid="1" gridSize="10" guides="1" tooltips="1" connect="1" arrows="1" fold="1" page="1" pageScale="1" pageWidth="1169" pageHeight="827" math="0" shadow="0">
            <root>
                <mxCell id="0"/>
                <mxCell id="1" parent="0"/>
                <mxCell id="O8BkXEFRIH3Sh26daxnS-1" value="解答" style="shape=umlFrame;whiteSpace=wrap;html=1;width=240;height=50;fontSize=22;" vertex="1" parent="1">
                    <mxGeometry x="270" y="120" width="350" height="470" as="geometry"/>
                </mxCell>
                <mxCell id="O8BkXEFRIH3Sh26daxnS-2" style="edgeStyle=none;html=1;entryX=0;entryY=0.5;entryDx=0;entryDy=0;fontSize=22;endArrow=none;endFill=0;strokeWidth=2;fontFamily=Lucida Console;fontStyle=0" edge="1" parent="1" source="O8BkXEFRIH3Sh26daxnS-5" target="O8BkXEFRIH3Sh26daxnS-6">
                    <mxGeometry relative="1" as="geometry"/>
                </mxCell>
                <mxCell id="O8BkXEFRIH3Sh26daxnS-3" style="edgeStyle=none;html=1;entryX=0;entryY=0.5;entryDx=0;entryDy=0;fontSize=22;endArrow=none;endFill=0;strokeWidth=2;fontFamily=Lucida Console;fontStyle=0" edge="1" parent="1" source="O8BkXEFRIH3Sh26daxnS-5" target="O8BkXEFRIH3Sh26daxnS-9">
                    <mxGeometry relative="1" as="geometry"/>
                </mxCell>
                <mxCell id="O8BkXEFRIH3Sh26daxnS-4" style="edgeStyle=none;html=1;entryX=0;entryY=0.5;entryDx=0;entryDy=0;fontSize=22;endArrow=none;endFill=0;strokeWidth=2;fontFamily=Lucida Console;fontStyle=0" edge="1" parent="1" source="O8BkXEFRIH3Sh26daxnS-5" target="O8BkXEFRIH3Sh26daxnS-12">
                    <mxGeometry relative="1" as="geometry"/>
                </mxCell>
                <mxCell id="O8BkXEFRIH3Sh26daxnS-5" value="解答者" style="shape=umlActor;html=1;verticalLabelPosition=bottom;verticalAlign=top;align=center;fontSize=22;strokeWidth=2;fontFamily=Lucida Console;fontStyle=0" vertex="1" parent="1">
                    <mxGeometry x="70" y="250" width="30" height="60" as="geometry"/>
                </mxCell>
                <mxCell id="O8BkXEFRIH3Sh26daxnS-18" style="edgeStyle=elbowEdgeStyle;html=1;entryX=1;entryY=0.5;entryDx=0;entryDy=0;endArrow=none;endFill=0;" edge="1" parent="1" source="O8BkXEFRIH3Sh26daxnS-6" target="O8BkXEFRIH3Sh26daxnS-16">
                    <mxGeometry relative="1" as="geometry">
                        <Array as="points">
                            <mxPoint x="650" y="390"/>
                        </Array>
                    </mxGeometry>
                </mxCell>
                <mxCell id="O8BkXEFRIH3Sh26daxnS-6" value="問題を表示する" style="ellipse;whiteSpace=wrap;html=1;fontSize=22;strokeWidth=2;fontFamily=Lucida Console;fontStyle=0" vertex="1" parent="1">
                    <mxGeometry x="320" y="210" width="240" height="70" as="geometry"/>
                </mxCell>
                <mxCell id="O8BkXEFRIH3Sh26daxnS-17" style="edgeStyle=elbowEdgeStyle;html=1;" edge="1" parent="1" source="O8BkXEFRIH3Sh26daxnS-9" target="O8BkXEFRIH3Sh26daxnS-16">
                    <mxGeometry relative="1" as="geometry">
                        <Array as="points">
                            <mxPoint x="650" y="440"/>
                        </Array>
                    </mxGeometry>
                </mxCell>
                <mxCell id="O8BkXEFRIH3Sh26daxnS-9" value="次の問題遷移する" style="ellipse;whiteSpace=wrap;html=1;fontSize=22;strokeWidth=2;fontFamily=Lucida Console;fontStyle=0" vertex="1" parent="1">
                    <mxGeometry x="332.5" y="300" width="225" height="70" as="geometry"/>
                </mxCell>
                <mxCell id="O8BkXEFRIH3Sh26daxnS-11" style="edgeStyle=none;html=1;entryX=-0.011;entryY=0.629;entryDx=0;entryDy=0;entryPerimeter=0;fontSize=22;endArrow=none;endFill=0;strokeWidth=2;fontFamily=Lucida Console;fontStyle=0" edge="1" parent="1" source="O8BkXEFRIH3Sh26daxnS-12" target="O8BkXEFRIH3Sh26daxnS-14">
                    <mxGeometry relative="1" as="geometry"/>
                </mxCell>
                <mxCell id="O8BkXEFRIH3Sh26daxnS-12" value="選択肢を保存する" style="ellipse;whiteSpace=wrap;html=1;fontSize=22;strokeWidth=2;fontFamily=Lucida Console;fontStyle=0" vertex="1" parent="1">
                    <mxGeometry x="332.5" y="400" width="225" height="70" as="geometry"/>
                </mxCell>
                <mxCell id="O8BkXEFRIH3Sh26daxnS-15" style="edgeStyle=none;html=1;entryX=1;entryY=0.5;entryDx=0;entryDy=0;endArrow=none;endFill=0;" edge="1" parent="1" source="O8BkXEFRIH3Sh26daxnS-13" target="O8BkXEFRIH3Sh26daxnS-6">
                    <mxGeometry relative="1" as="geometry"/>
                </mxCell>
                <mxCell id="O8BkXEFRIH3Sh26daxnS-13" value="exam" style="strokeWidth=2;html=1;shape=mxgraph.flowchart.database;whiteSpace=wrap;fontSize=22;fontFamily=Lucida Console;fontStyle=0" vertex="1" parent="1">
                    <mxGeometry x="690" y="200" width="90" height="70" as="geometry"/>
                </mxCell>
                <mxCell id="O8BkXEFRIH3Sh26daxnS-14" value="answer" style="strokeWidth=2;html=1;shape=mxgraph.flowchart.database;whiteSpace=wrap;fontSize=22;fontFamily=Lucida Console;fontStyle=0" vertex="1" parent="1">
                    <mxGeometry x="690" y="414" width="90" height="70" as="geometry"/>
                </mxCell>
                <mxCell id="O8BkXEFRIH3Sh26daxnS-16" value="問題番号を管理する" style="ellipse;whiteSpace=wrap;html=1;fontSize=22;strokeWidth=2;fontFamily=Lucida Console;fontStyle=0" vertex="1" parent="1">
                    <mxGeometry x="332.5" y="500" width="230" height="70" as="geometry"/>
                </mxCell>
                <mxCell id="O8BkXEFRIH3Sh26daxnS-19" value="&lt;span style=&quot;font-size: 22px;&quot;&gt;examテーブルから指定された1行を取得する&lt;br&gt;→0から始まるページ番号で取得するように&lt;br&gt;&lt;/span&gt;" style="text;html=1;align=left;verticalAlign=middle;resizable=0;points=[];autosize=1;strokeColor=none;fillColor=none;" vertex="1" parent="1">
                    <mxGeometry x="840" y="200" width="460" height="70" as="geometry"/>
                </mxCell>
                <mxCell id="O8BkXEFRIH3Sh26daxnS-20" value="&lt;span style=&quot;font-size: 22px;&quot;&gt;管理しているページ番号を1ずつへ進める&lt;br&gt;&lt;/span&gt;" style="text;html=1;align=left;verticalAlign=middle;resizable=0;points=[];autosize=1;strokeColor=none;fillColor=none;" vertex="1" parent="1">
                    <mxGeometry x="820" y="505" width="430" height="40" as="geometry"/>
                </mxCell>
                <mxCell id="O8BkXEFRIH3Sh26daxnS-21" value="&lt;span style=&quot;font-size: 22px;&quot;&gt;初回表示時は0回目&lt;br&gt;&lt;/span&gt;" style="text;html=1;align=left;verticalAlign=middle;resizable=0;points=[];autosize=1;strokeColor=none;fillColor=none;" vertex="1" parent="1">
                    <mxGeometry x="820" y="460" width="210" height="40" as="geometry"/>
                </mxCell>
                <mxCell id="O8BkXEFRIH3Sh26daxnS-22" value="&lt;span style=&quot;font-size: 22px;&quot;&gt;WrbAPI&lt;br&gt;&lt;/span&gt;" style="text;html=1;align=left;verticalAlign=middle;resizable=0;points=[];autosize=1;strokeColor=none;fillColor=none;" vertex="1" parent="1">
                    <mxGeometry x="1380" y="80" width="100" height="40" as="geometry"/>
                </mxCell>
                <mxCell id="O8BkXEFRIH3Sh26daxnS-23" value="&lt;blockquote style=&quot;margin: 0 0 0 40px; border: none; padding: 0px;&quot;&gt;getExam?row=0～&lt;/blockquote&gt;" style="text;html=1;align=left;verticalAlign=middle;resizable=0;points=[];autosize=1;strokeColor=none;fillColor=none;fontSize=22;labelBorderColor=default;labelBackgroundColor=#33001A;" vertex="1" parent="1">
                    <mxGeometry x="1331" y="216" width="250" height="40" as="geometry"/>
                </mxCell>
            </root>
        </mxGraphModel>
    </diagram>
</mxfile>